<?xml version="1.0" standalone="yes"?>
<svg xmlns="http://www.w3.org/2000/svg" width="250" height="250">
<path style="fill:#60110b; stroke:none;" d="M0 0L0 250L35 250C31.6259 241.883 29.5461 236.736 32 228C40.2325 232.138 46.3287 229.69 55 229L55 232L39 236L39 237L55 234.458L75 250L71 212C78.9506 209.361 69.5114 189.271 67.7091 183C64.7927 172.853 60.464 163.422 55.7531 154C54.0396 150.573 49.8013 145.003 50.6651 141C52.0499 134.583 61.755 127.336 67 124C77.2636 155.543 83.8027 188.362 96.8503 219C100.872 228.444 104.995 244.22 114 250L97.4491 215L75.6258 146L69 118L82 111.417L94 114C99.1582 149.059 114.663 189.17 131.862 220C136.694 228.661 142.608 244.613 151 250C139.841 223.205 123.079 199.775 113.343 172C108.813 159.075 99.7276 146.034 117 140C123.689 154.311 127 162.957 127 179L128 179C132.215 166.65 137.387 146.354 147.329 137.318C152.28 132.817 162.114 137.869 165.781 131.606C168.702 126.617 162.249 118.275 160 114C171.876 112.04 193.652 123.845 195.218 137C195.803 141.922 191.113 146.363 188.489 150C184.391 155.679 180.179 163.148 178.525 170C172.122 196.537 179.708 223.635 170 250C191.625 249.983 176.782 218.056 201 217L201 215C196.21 215.099 186.129 220.051 182.314 217.303C175.839 212.64 178.209 199.527 178.83 193C180.748 172.85 181.342 155.786 198 141C198 156.127 204.6 166.877 208.791 181C211.837 191.266 212.159 203.341 213 214L202 214L202 215C219.77 215.21 203.127 241.408 200 250L250 250L250 0L0 0z"/>
<path style="fill:#954f18; stroke:none;" d="M98 13L99 11L98 11C83.0163 24.3091 82.1672 48.1527 91 65L92 65C89.9777 54.1069 89.378 37.1747 101.375 31.1975C103.909 29.935 107.247 31.0337 110 30.1165C117.494 27.6203 126.054 24.0929 132 31L138 29L138 34L139 34C146.101 31.9782 146.878 49.6419 150 54L151 45L152 45L152 47L153 47L153 32L152 32L152 39L151 39L149 26L150 26L151 31C153.262 24.621 146.879 17.937 142.385 14.0401C126.982 0.683136 114.188 4.1217 98 13z"/>
<path style="fill:#60110b; stroke:none;" d="M119 5L119 6L122 6L119 5M128 7L129 8L128 7M131 8L132 9L131 8M136 11L136 12L140 14L140 13L136 11M96 14L95 17L96 17L96 14M93 19L92 22L93 22L93 19M147 22L148 26L149 26L147 22M90 25L87 38L88 38L90 25M114 25L115 26L114 25M111.667 26.3333L112.333 26.6667L111.667 26.3333M109 27L110 28L109 27z"/>
<path style="fill:#b18b24; stroke:none;" d="M120 27L121 28L120 27z"/>
<path style="fill:#60110b; stroke:none;" d="M142 27L143 28L142 27z"/>
<path style="fill:#e4ded6; stroke:none;" d="M142 35L140 38L135 31L134 36C131.43 33.9374 130.185 29.8715 126.938 28.7924C118.202 25.8887 97.4752 33.6299 94.0093 42.0147C88.6566 54.964 94.4447 78.4267 102.61 88.9815C111.536 100.521 139.569 95.2719 146.101 82.9961C152.402 71.1538 147.475 46.3754 142 35z"/>
<path style="fill:#b18b24; stroke:none;" d="M127 28L128 29L127 28z"/>
<path style="fill:#954f18; stroke:none;" d="M129 29L130 30L129 29z"/>
<path style="fill:#b18b24; stroke:none;" d="M112 30L113 31L112 30z"/>
<path style="fill:#954f18; stroke:none;" d="M130 30L131 31L130 30z"/>
<path style="fill:#60110b; stroke:none;" d="M143 30L144 31L143 30z"/>
<path style="fill:#954f18; stroke:none;" d="M134 31L135 32L134 31z"/>
<path style="fill:#b18b24; stroke:none;" d="M101 32L102 33L101 32M103 32L103 33L106 33L103 32z"/>
<path style="fill:#954f18; stroke:none;" d="M106 32L106 33L110 33L106 32z"/>
<path style="fill:#b18b24; stroke:none;" d="M110 32L111 33L110 32M130 33L131 34L130 33z"/>
<path style="fill:#954f18; stroke:none;" d="M133 33L134 34L133 33z"/>
<path style="fill:#b18b24; stroke:none;" d="M136 33L137 34L136 33z"/>
<path style="fill:#60110b; stroke:none;" d="M145 33L146 34L145 33M91 34L92 35L91 34M148.333 34.6667L148.667 35.3333L148.333 34.6667z"/>
<path style="fill:#b18b24; stroke:none;" d="M137 35L138 36L137 35z"/>
<path style="fill:#954f18; stroke:none;" d="M140 35L141 36L140 35M142 35L143 36L142 35M98 36L99 37L98 36z"/>
<path style="fill:#b18b24; stroke:none;" d="M138 36L139 37L138 36M139 37L140 38L139 37z"/>
<path style="fill:#954f18; stroke:none;" d="M143 37L144 38L143 37z"/>
<path style="fill:#60110b; stroke:none;" d="M86 39L87 50L88 50L89 44L86 39z"/>
<path style="fill:#b18b24; stroke:none;" d="M94 40L95 41L94 40z"/>
<path style="fill:#60110b; stroke:none;" d="M148.333 40.6667L148.667 41.3333L148.333 40.6667M151 41L150 43L151 41z"/>
<path style="fill:#b18b24; stroke:none;" d="M93 42L94 43L93 42z"/>
<path style="fill:#954f18; stroke:none;" d="M144 42L145 43L144 42z"/>
<path style="fill:#b18b24; stroke:none;" d="M144.333 44.6667L144.667 45.3333L144.333 44.6667z"/>
<path style="fill:#60110b; stroke:none;" d="M149 44L150 45L149 44z"/>
<path style="fill:#954f18; stroke:none;" d="M92 45L93 46L92 45z"/>
<path style="fill:#b18b24; stroke:none;" d="M92 46L93 47L92 46z"/>
<path style="fill:#954f18; stroke:none;" d="M92 47L92 53L93 53L92 47z"/>
<path style="fill:#b18b24; stroke:none;" d="M145 48L146 49L145 48M146 51L147 52L146 51M153 51L155 53L153 51z"/>
<path style="fill:#e4ded6; stroke:none;" d="M153 52L150 74C156.415 70.6334 157.175 57.5109 153 52z"/>
<path style="fill:#954f18; stroke:none;" d="M92 54L92 60L93 60L92 54z"/>
<path style="fill:#b18b24; stroke:none;" d="M151 55L152 56L151 55M147 56L148 57L147 56z"/>
<path style="fill:#954f18; stroke:none;" d="M155 56L155 65L156 65L155 56M148 58L148 61L149 61L148 58z"/>
<path style="fill:#b18b24; stroke:none;" d="M150 58L151 59L150 58M148 61L148 64L149 64L148 61M93 63L94 64L93 63z"/>
<path style="fill:#954f18; stroke:none;" d="M93.3333 64.6667L93.6667 65.3333L93.3333 64.6667M148 64L148 66L150 64L148 64z"/>
<path style="fill:#b18b24; stroke:none;" d="M89 65L92 68L89 65z"/>
<path style="fill:#60110b; stroke:none;" d="M149 65L148 67L150 67L149 65z"/>
<path style="fill:#b18b24; stroke:none;" d="M155 65L155 68L156 68L155 65z"/>
<path style="fill:#954f18; stroke:none;" d="M88 66L89 67L88 66z"/>
<path style="fill:#e4ded6; stroke:none;" d="M89 66C89.4795 72.0255 90.1734 78.0874 96 81L89 66z"/>
<path style="fill:#954f18; stroke:none;" d="M148 67L149 72L150 72L148 67z"/>
<path style="fill:#b18b24; stroke:none;" d="M94 68L95 69L94 68M92 69L93 70L92 69z"/>
<path style="fill:#954f18; stroke:none;" d="M94.3333 69.6667L94.6667 70.3333L94.3333 69.6667z"/>
<path style="fill:#b18b24; stroke:none;" d="M89 70L90 71L89 70z"/>
<path style="fill:#954f18; stroke:none;" d="M154 70L155 71L154 70M89.3333 71.6667L89.6667 72.3333L89.3333 71.6667M93 72L94 73L93 72z"/>
<path style="fill:#b18b24; stroke:none;" d="M149.333 72.6667L149.667 73.3333L149.333 72.6667z"/>
<path style="fill:#954f18; stroke:none;" d="M152 73L153 74L152 73z"/>
<path style="fill:#b18b24; stroke:none;" d="M90 75L91 76L90 75M95 75L96 76L95 75z"/>
<path style="fill:#954f18; stroke:none;" d="M90 76L91 77L90 76M94 77L95 78L94 77z"/>
<path style="fill:#b18b24; stroke:none;" d="M91 78L92 79L91 78M96 78L97 79L96 78M92 79L93 80L92 79z"/>
<path style="fill:#954f18; stroke:none;" d="M95 79L96 80L95 79z"/>
<path style="fill:#b18b24; stroke:none;" d="M147 79L148 80L147 79z"/>
<path style="fill:#954f18; stroke:none;" d="M93 80L94 81L93 80z"/>
<path style="fill:#b18b24; stroke:none;" d="M97 80L98 81L97 80z"/>
<path style="fill:#954f18; stroke:none;" d="M147 80L148 81L147 80z"/>
<path style="fill:#b18b24; stroke:none;" d="M98 82L99 83L98 82z"/>
<path style="fill:#954f18; stroke:none;" d="M146 83L147 84L146 83M99 84L100 85L99 84z"/>
<path style="fill:#b18b24; stroke:none;" d="M145 84L146 85L145 84M100 85L101 86L100 85M144 85L145 86L144 85M143 86L144 87L143 86M101 87L102 88L101 87z"/>
<path style="fill:#954f18; stroke:none;" d="M144 88L145 89L144 88z"/>
<path style="fill:#b18b24; stroke:none;" d="M140 89L141 90L140 89M143 89L144 90L143 89z"/>
<path style="fill:#e4ded6; stroke:none;" d="M144 89C130.682 96.5792 117.052 98.6099 103 93C103 99.8524 99.6929 110.963 100.941 117C103.257 128.21 124.354 140.702 134 145L146.457 116L144.325 102L144 89z"/>
<path style="fill:#954f18; stroke:none;" d="M137 90L137 91L140 92L137 90M135 91L137 93L135 91z"/>
<path style="fill:#60110b; stroke:none;" d="M136 91L136 92L139 92L136 91z"/>
<path style="fill:#954f18; stroke:none;" d="M133 92L135 94L133 92z"/>
<path style="fill:#60110b; stroke:none;" d="M134.667 92.3333L135.333 92.6667L134.667 92.3333z"/>
<path style="fill:#954f18; stroke:none;" d="M128 93L128 94L132 94L128 93z"/>
<path style="fill:#60110b; stroke:none;" d="M108 95L108 96L134 94L108 95z"/>
<path style="fill:#954f18; stroke:none;" d="M108 94L109 95L108 94z"/>
<path style="fill:#b18b24; stroke:none;" d="M109 94L110 95L109 94M124 94L125 95L124 94z"/>
<path style="fill:#954f18; stroke:none;" d="M125 94L126 95L125 94z"/>
<path style="fill:#b18b24; stroke:none;" d="M132 94L133 95L132 94z"/>
<path style="fill:#954f18; stroke:none;" d="M107 95L108 96L107 95M126 95L127 96L126 95z"/>
<path style="fill:#b18b24; stroke:none;" d="M127 95L128 96L127 95M110 96L111 97L110 96z"/>
<path style="fill:#954f18; stroke:none;" d="M111 96L112 97L111 96z"/>
<path style="fill:#b18b24; stroke:none;" d="M112 96L113 97L112 96z"/>
<path style="fill:#954f18; stroke:none;" d="M113 96L113 97L116 97L113 96z"/>
<path style="fill:#b18b24; stroke:none;" d="M116 96L117 97L116 96z"/>
<path style="fill:#954f18; stroke:none;" d="M117 96L118 97L117 96z"/>
<path style="fill:#b18b24; stroke:none;" d="M118 96L119 97L118 96M144 98L145 99L144 98z"/>
<path style="fill:#954f18; stroke:none;" d="M144 99L144 104L145 104L144 99M146 100L147 101L146 100z"/>
<path style="fill:#b18b24; stroke:none;" d="M146 101L148 104L146 101z"/>
<path style="fill:#954f18; stroke:none;" d="M147 102L148 103L147 102M146 103L146 106L149 105L149 104L146 103M101 104L99 107C101.259 106.538 102.212 106.145 101 104z"/>
<path style="fill:#b18b24; stroke:none;" d="M103 105L104 106L103 105M144.333 105.667L144.667 106.333L144.333 105.667M147 105L147 108L148 108L147 105z"/>
<path style="fill:#3b9711; stroke:none;" d="M148 105C147.521 109.507 144.689 127.312 147.029 130.411C150.668 135.231 160.447 132.443 165 131C162.502 120.234 155.97 112.369 148 105z"/>
<path style="fill:#b18b24; stroke:none;" d="M100 106L100 110L101 110L100 106z"/>
<path style="fill:#954f18; stroke:none;" d="M149 106L150 107L149 106z"/>
<path style="fill:#3b9711; stroke:none;" d="M98 108L104 143L120 138L120 137L114 133L112 134L108 131L99.9429 118.09L100 108L98 108z"/>
<path style="fill:#954f18; stroke:none;" d="M145 108L146 109L145 108M102 109L103 110L102 109z"/>
<path style="fill:#b18b24; stroke:none;" d="M145.333 109.667L145.667 110.333L145.333 109.667z"/>
<path style="fill:#954f18; stroke:none;" d="M147 109L146 113L147 113L147 109M81 110L80 112L81 110z"/>
<path style="fill:#e4ded6; stroke:none;" d="M79 114L86 113C83.0443 110.531 81.4614 111.22 79 114z"/>
<path style="fill:#b18b24; stroke:none;" d="M83 110L84 111L83 110z"/>
<path style="fill:#954f18; stroke:none;" d="M97 110L96 116L97 116L97 110M100 110L101 111L100 110z"/>
<path style="fill:#b18b24; stroke:none;" d="M102 110L103 111L102 110M85 111L86 112L85 111M99 111L100 112L99 111z"/>
<path style="fill:#60110b; stroke:none;" d="M147 111L142 130L145 132L146 132L147 111z"/>
<path style="fill:#b18b24; stroke:none;" d="M79 112L80 113L79 112M71 124L77.7099 154L82 164C80.9954 170.792 85.0166 178.587 87.1659 185C92.27 200.23 97.5229 215.122 103.603 230C105.903 235.627 109.736 245.774 115.21 248.972C122.751 253.378 140.329 250 149 250L149 249L148 247L146 247L147 245L145 245C144.699 240.731 142.684 237.251 139 235C138.9 230.222 136.19 225.376 132 223L118.018 189.424L94 115C87.0212 113.442 81.3307 111.198 74.9653 115.988C72.3365 117.967 67.5844 120.967 71 124z"/>
<path style="fill:#954f18; stroke:none;" d="M87 112L88 113L87 112z"/>
<path style="fill:#b18b24; stroke:none;" d="M101 112L102 113L101 112z"/>
<path style="fill:#954f18; stroke:none;" d="M89 113L90 114L89 113M99 113L101 115L99 113M162 113L162 114L167 114L162 113M90 114L90 115L94 115L90 114z"/>
<path style="fill:#60110b; stroke:none;" d="M99 114C100.254 125.543 113.063 134.713 123 139L121 141L130 144C132.491 146.699 134.511 144.71 136 142L135 142L134 145C119.636 136.995 108.157 127.53 99 114z"/>
<path style="fill:#954f18; stroke:none;" d="M148 114L149 115L148 114z"/>
<path style="fill:#3b9711; stroke:none;" d="M160 114C161.797 118.316 167.762 126.013 165.636 130.786C162.35 138.163 151.571 132.315 146.789 137.318C137.456 147.082 131.352 166.181 128 179L127 179C127 167.357 127.233 157.395 121.123 147.001C117.533 140.892 109.454 138.505 106.328 147.015C103.583 154.488 112.683 169.932 115.319 177C122.355 195.86 130.472 213.592 140.576 231C143.543 236.112 146.697 245.565 151.634 248.972C155.753 251.814 165.148 250 170 250C173.021 237.28 176.087 225.305 176.549 212C177.023 198.344 175.295 183.38 178.525 170C181.055 159.525 196.548 147.335 195.334 137.001C193.621 122.413 172.128 114 160 114z"/>
<path style="fill:#954f18; stroke:none;" d="M171 114L172 115L171 114M98 115L99 116L98 115M160 115L161 116L160 115M173 115L174 116L173 115z"/>
<path style="fill:#b18b24; stroke:none;" d="M146 116L147 117L146 116z"/>
<path style="fill:#954f18; stroke:none;" d="M72.6667 117.333L73.3333 117.667L72.6667 117.333z"/>
<path style="fill:#e4ded6; stroke:none;" d="M82.6667 117.333L83.3333 117.667L82.6667 117.333z"/>
<path style="fill:#954f18; stroke:none;" d="M94 117L95 118L94 117M96 117L97 118L96 117M146 117L147 118L146 117z"/>
<path style="fill:#b18b24; stroke:none;" d="M69 118L70 119L69 118z"/>
<path style="fill:#e4ded6; stroke:none;" d="M69 120L72 118L69 120z"/>
<path style="fill:#954f18; stroke:none;" d="M179 118L180 119L179 118z"/>
<path style="fill:#e4ded6; stroke:none;" d="M79 119L80 120L79 119z"/>
<path style="fill:#b18b24; stroke:none;" d="M148 119L149 120L148 119z"/>
<path style="fill:#954f18; stroke:none;" d="M180 119L181 120L180 119M95 120L96 121L95 120M102 120L103 121L102 120M147 120L148 121L147 120M182.333 120.667L182.667 121.333L182.333 120.667M101 121L102 122L101 121z"/>
<path style="fill:#b18b24; stroke:none;" d="M103 121L104 122L103 121z"/>
<path style="fill:#954f18; stroke:none;" d="M145 121L146 122L145 121M146 123L147 124L146 123M184 123L185 124L184 123M64 125L64 126L68 126L64 125M69 124L70 125L69 124z"/>
<path style="fill:#e4ded6; stroke:none;" d="M70 124L71 125L70 124z"/>
<path style="fill:#954f18; stroke:none;" d="M96 124L97 125L96 124M144 124L145 125L144 124M185 124L186 125L185 124M186 125L187 126L186 125M62 126L63 127L62 126z"/>
<path style="fill:#3b9711; stroke:none;" d="M56 136C44.0268 137.802 55.7298 154.482 58.3627 160C64.6969 173.274 73.7192 192.11 74.4738 206.996C74.6657 210.783 71.1955 213.235 71.1489 217.039C71.0175 227.778 75.1416 239.214 76 250L112 250C100.654 223.67 88.4031 198.826 80.2747 171C77.2691 160.711 74.6354 150.348 71.8488 140C70.8877 136.431 70.4809 130.393 67.9105 127.607C63.0607 122.352 57.0271 132.232 56 136z"/>
<path style="fill:#b18b24; stroke:none;" d="M143 126L144 127L143 126z"/>
<path style="fill:#954f18; stroke:none;" d="M145 126L146 127L145 126M187 126L188 127L187 126M99 127L100 128L99 127M108 127L109 128L108 127z"/>
<path style="fill:#b18b24; stroke:none;" d="M145.333 127.667L145.667 128.333L145.333 127.667z"/>
<path style="fill:#954f18; stroke:none;" d="M188 127L189 128L188 127M97.3333 128.667L97.6667 129.333L97.3333 128.667M109 128L110 129L109 128M142 128L143 129L142 128M189 128L190 129L189 128M59 129L60 130L59 129M143 129L141 130L141 131L143 129M145 129L146 130L145 129M190.667 129.333L191.333 129.667L190.667 129.333M58 130L59 131L58 130M71.3333 130.667L71.6667 131.333L71.3333 130.667z"/>
<path style="fill:#b18b24; stroke:none;" d="M108 130L110 132L108 130z"/>
<path style="fill:#954f18; stroke:none;" d="M109 130L110 131L109 130z"/>
<path style="fill:#e4ded6; stroke:none;" d="M143 130L144 131L143 130z"/>
<path style="fill:#954f18; stroke:none;" d="M100 131L101 132L100 131M110 131L111 132L110 131z"/>
<path style="fill:#b18b24; stroke:none;" d="M113 131L114 132L113 131z"/>
<path style="fill:#60110b; stroke:none;" d="M141 131L142 132L141 131z"/>
<path style="fill:#b18b24; stroke:none;" d="M142 134L139 133L140 136L138 135C138.527 138.162 137.713 141.678 135 141C134.571 150.709 124.723 142.958 120 141L129 168L130 168C133.663 157.261 146.942 142.313 145 131L142 134z"/>
<path style="fill:#954f18; stroke:none;" d="M146 131L147 132L146 131M163 131L164 132L163 131M98 132L99 133L98 132M114 132L115 133L114 132M140 132L141 133L140 132M145 132L146 133L145 132M150 132L151 133L150 132M160 132L161 133L160 132z"/>
<path style="fill:#b18b24; stroke:none;" d="M112 133L113 134L112 133M116 133L117 134L116 133z"/>
<path style="fill:#60110b; stroke:none;" d="M140 133L141 134L140 133z"/>
<path style="fill:#e4ded6; stroke:none;" d="M141 133L142 134L141 133z"/>
<path style="fill:#954f18; stroke:none;" d="M194 133L195 134L194 133M55.3333 134.667L55.6667 135.333L55.3333 134.667M70.3333 134.667L70.6667 135.333L70.3333 134.667M72 134L73 135L72 134M101 134L102 135L101 134z"/>
<path style="fill:#60110b; stroke:none;" d="M139 134L140 135L139 134z"/>
<path style="fill:#954f18; stroke:none;" d="M99 135L100 136L99 135z"/>
<path style="fill:#b18b24; stroke:none;" d="M115 135L116 136L115 135z"/>
<path style="fill:#954f18; stroke:none;" d="M116 135L117 136L116 135M119 135L120 136L119 135M139 135L140 136L139 135z"/>
<path style="fill:#b18b24; stroke:none;" d="M117 136L118 137L117 136z"/>
<path style="fill:#60110b; stroke:none;" d="M138 136L139 137L138 136z"/>
<path style="fill:#954f18; stroke:none;" d="M195 136L196 137L195 136M52 137L53 138L52 137M73.3333 137.667L73.6667 138.333L73.3333 137.667M102 137L103 138L102 137M122 137L123 138L122 137M137.667 137.333L138.333 137.667L137.667 137.333M144 137L145 138L144 137M146 137L147 138L146 137M71 138L72 139L71 138M100.333 138.667L100.667 139.333L100.333 138.667M115 138L116 139L115 138M118.667 138.333L119.333 138.667L118.667 138.333z"/>
<path style="fill:#b18b24; stroke:none;" d="M120 138L121 139L120 138z"/>
<path style="fill:#954f18; stroke:none;" d="M121.333 138.667L121.667 139.333L121.333 138.667z"/>
<path style="fill:#b18b24; stroke:none;" d="M124 138L125 139L124 138z"/>
<path style="fill:#60110b; stroke:none;" d="M137 138L138 139L137 138z"/>
<path style="fill:#954f18; stroke:none;" d="M50 139L51 140L50 139M112 139L113 140L112 139z"/>
<path style="fill:#b18b24; stroke:none;" d="M122 139L123 140L122 139M125 139L126 140L125 139z"/>
<path style="fill:#954f18; stroke:none;" d="M136 139L136 142L137 142L138 139L136 139M143 139L144 140L143 139M49.3333 140.667L49.6667 141.333L49.3333 140.667M103 140L104 141L103 140M116 140L117 141L116 140M119.667 140.333L120.333 140.667L119.667 140.333M123 140L129 144L129 143L123 140M126 140L127 141L126 140M144 140L145 141L144 140M74 141L75 142L74 141M117 141L118 142L117 141z"/>
<path style="fill:#3b9711; stroke:none;" d="M119 141L120 142L119 141z"/>
<path style="fill:#b18b24; stroke:none;" d="M128 141L129 142L128 141z"/>
<path style="fill:#954f18; stroke:none;" d="M142 141L143 142L142 141M194 141L195 142L194 141M196.667 141.333L197.333 141.667L196.667 141.333M72 142L73 143L72 142M101.333 142.667L101.667 143.333L101.333 142.667M123 142L124 143L123 142M129 142L130 143L129 142M143 142L144 143L143 142z"/>
<path style="fill:#b18b24; stroke:none;" d="M196 142C190.504 150.055 184.287 157.611 181.104 167C176.035 181.955 178.438 201.868 181 217L182 217L182 214L183 214L184 218L212 214L210 206L209 200L211 197C207.579 197.684 208.952 195.488 211 196L208 189L208 188L210 186L207 183C207.927 178.021 206.309 171.004 202 168L203 165L200 164L198 142L196 142z"/>
<path style="fill:#954f18; stroke:none;" d="M46 144L46 145L48 144L47 147L50 147L48 143L46 144M50 143L51 144L50 143M104.667 143.333L105.333 143.667L104.667 143.333M120 143L121 144L120 143M124 143L125 144L124 143M134 143L135 144L134 143M141 143L142 144L141 143M193 143L194 144L193 143z"/>
<path style="fill:#b18b24; stroke:none;" d="M47 144C44.0852 149.554 43.2406 153.96 45 160L44 160L44 158L43 158C43.3894 161.861 43.4478 169.732 40 172L40 183L39 189L38 189L38 187L37 187L36 202L35 206C27.9645 212.33 27.6141 226.198 38 228.86C44.7081 230.58 58.2406 227.483 65 226L68 202L69 202L69 205L70 205C68.7783 189.648 63.0371 173.702 56.2477 160C54.0508 155.566 52.2491 148.083 47 147L47 144z"/>
<path style="fill:#954f18; stroke:none;" d="M119 144L120 145L119 144M123 144L124 145L123 144M126 144L127 145L126 144M129 144L128 146L130 146L129 144M135 144L136 145L135 144M142 144L143 145L142 144M194 144L195 145L194 144M196 144L197 145L196 144M73.3333 145.667L73.6667 146.333L73.3333 145.667M75 145L76 146L75 145M134 145L135 146L134 145M140 145L141 146L140 145M193 145L194 146L193 145M102 146L103 147L102 146M105 146L106 147L105 146M130 146L130 147L134 147L130 146M191 146L192 147L191 146M139 147L140 148L139 147M192 147L193 148L192 147M50 148L51 149L50 148M105.333 148.667L105.667 149.333L105.333 148.667M123 148L124 149L123 148M191 148L192 149L191 148M44 149L45 150L44 149M74.3333 149.667L74.6667 150.333L74.3333 149.667M76 149L77 150L76 149M103 149L104 150L103 149M122 149L123 150L122 149M138 149L139 150L138 149M190 149L191 150L190 149M51 150L52 151L51 150M124 150L125 151L124 150M43 151L43 154L44 154L43 151M123 151L124 152L123 151M137 151L138 152L137 151M104 152L105 153L104 152M106 152L107 153L106 152M138 152L139 153L138 152M188 152L189 153L188 152M198 152L200 159L198 152M75.3333 153.667L75.6667 154.333L75.3333 153.667M77 153L78 154L77 153M124 153L125 154L124 153M136 153L137 154L136 153M53 154L54 155L53 154M126.333 154.667L126.667 155.333L126.333 154.667M105 155L106 156L105 155M107 155L108 156L107 155M135 155L136 156L135 155M186 155L187 156L186 155M43 156L44 160L45 160L43 156M54 156L55 157L54 156M78.3333 156.667L78.6667 157.333L78.3333 156.667M125 156L126 157L125 156M184 156L185 157L184 156M57 157L58 158L57 157M76 157L77 158L76 157M127 157L128 158L127 157M185 157L186 158L185 157M55 158L56 159L55 158M106 158L107 159L106 158M108 158L109 159L108 158M133 159L134 160L133 159M42 160L41 168L42 168L42 160M56 160L57 161L56 160M77.3333 160.667L77.6667 161.333L77.3333 160.667M79 160L80 161L79 160M182 160L183 161L182 160M200.333 160.667L200.667 161.333L200.333 160.667M107 161L108 162L107 161M109 161L110 162L109 161M128 161L128 168L129 168L128 161M132 161L133 162L132 161M183 161L184 162L183 161M57 162L58 163L57 162M181 162L182 163L181 162M201 162L200 164L202 164L201 162M131 163L132 164L131 163M182 163L183 164L182 163M58 164L59 165L58 164M78.3333 164.667L78.6667 165.333L78.3333 164.667M80 164L81 165L80 164z"/>
<path style="fill:#e4ded6; stroke:none;" d="M81 164L82 165L81 164z"/>
<path style="fill:#954f18; stroke:none;" d="M108 164L109 165L108 164M110 164L111 165L110 164M180 164L181 165L180 164M202 164L203 165L202 164M181 165L182 166L181 165M201.333 165.667L201.667 166.333L201.333 165.667M59 166L60 167L59 166M111 166L112 167L111 166M130 166L131 167L130 166M179 166L180 167L179 166M203 166L202 168L204 168L203 166M81 167L82 168L81 167M109 167L110 168L109 167M131 167L132 168L131 167M40 168L42 172L40 168M62 168L63 169L62 168z"/>
<path style="fill:#3b9711; stroke:none;" d="M128.333 168.667L128.667 169.333L128.333 168.667z"/>
<path style="fill:#954f18; stroke:none;" d="M180 168L181 169L180 168M204.333 168.667L204.667 169.333L204.333 168.667M60 169L61 170L60 169M112 169L113 170L112 169M178 169L179 170L178 169M63 170L64 171L63 170M82 170L83 171L82 170M128 170L129 171L128 170M130 170L131 171L130 170M203.333 170.667L203.667 171.333L203.333 170.667M61 171L62 172L61 171M80.3333 171.667L80.6667 172.333L80.3333 171.667M111 172L112 173L111 172M113 172L114 173L113 172M179 172L179 175L180 175L179 172M205.333 172.667L205.667 173.333L205.333 172.667M39 173L39 177L40 177L39 173M62.3333 173.667L62.6667 174.333L62.3333 173.667M64 173L65 174L64 173M83 173L84 174L83 173M81 174L82 175L81 174M114.333 174.667L114.667 175.333L114.333 174.667M206.333 174.667L206.667 175.333L206.333 174.667M112 175L113 176L112 175M63.3333 176.667L63.6667 177.333L63.3333 176.667M177 176L178 177L177 176M82 177L83 178L82 177M84 177L85 178L84 177M113 177L114 178L113 177M115 177L116 178L115 177M207 177L208 178L207 177M38 178L39 183L40 183L38 178M64.3333 179.667L64.6667 180.333L64.3333 179.667M208 179L207 183L208 183L208 179M83 180L84 181L83 180M85 180L86 181L85 180M114 180L115 181L114 180M116 180L117 181L116 180M177 180L177 185L178 185L177 180M37 182L38 189L39 189L37 182M65.3333 182.667L65.6667 183.333L65.3333 182.667M67 182L68 183L67 182M86.3333 182.667L86.6667 183.333L86.3333 182.667M115 182L116 183L115 182M117 182L118 183L117 182M84 183L85 184L84 183M209 183L208 186L209 183M118 184L119 185L118 184M116 185L117 186L116 185M66.3333 186.667L66.6667 187.333L66.3333 186.667M85 186L86 187L85 186M117 187L118 188L117 187M119 187L120 188L119 187M88 188L89 189L88 188M208.667 188.333L209.333 188.667L208.667 188.333M69 189L70 190L69 189M86.3333 189.667L86.6667 190.333L86.3333 189.667z"/>
<path style="fill:#e4ded6; stroke:none;" d="M117 189L118 190L117 189z"/>
<path style="fill:#954f18; stroke:none;" d="M210 189L210 194L211 194L210 189M36.3333 190.667L36.6667 191.333L36.3333 190.667M67.3333 190.667L67.6667 191.333L67.3333 190.667M118 190L119 191L118 190M87 192L88 193L87 192M89 192L90 193L89 192M119 192L120 193L119 192M121 192L122 193L121 192M35 193L35 197L36 197L37 193L35 193M70 193L71 194L70 193M68.3333 194.667L68.6667 195.333L68.3333 194.667M90 195L91 196L90 195M120 195L121 196L120 195M122 195L123 196L122 195M178 195L178 210L179 210L178 195M209 195L209 198L211 197L211 196L209 195M88 196L89 197L88 196M71 197L72 198L71 197M123 197L124 198L123 197M34 198L36 202L36 198L34 198M69 198L69 201L70 201L69 198M91 198L92 199L91 198M89 199L90 200L89 199M209 199L211 201L211 199L209 199M72 200L73 201L72 200M122 200L123 201L122 200M124 200L125 201L124 200M92 201L93 202L92 201M209 201L210 202L209 201M211 201L210 206L211 206L211 201M68 202L69 210L70 210L68 202M70.3333 202.667L70.6667 203.333L70.3333 202.667M125 202L126 203L125 202M33 203L35 206L33 203M35 203L36 204L35 203M93 204L94 205L93 204M124 205L125 206L124 205M176 205L176 210L177 210L176 205M127.333 206.667L127.667 207.333L127.333 206.667M32 207L32 211L33 211L32 207M34 207L35 208L34 207M92 207L93 208L92 207M94 207L95 208L94 207M125 207L126 208L125 207M126 209L127 210L126 209M128 209L129 210L128 209M212 209L212 214L213 214L212 209M93 210L94 211L93 210M127 211L128 212L127 211M129 211L130 212L129 211M179 211L180 212L179 211M31 212L31 216L32 216L31 212M68 212L68 216L69 216L68 212M71.6667 212.333L72.3333 212.667L71.6667 212.333M96 212L97 213L96 212M130 212L131 213L130 212M128 213L129 214L128 213M176 213L176 218L177 218L176 213M180 213L180 217L181 217L180 213M182 214L181 218L186 219L186 218L185 216L182 214M195 214L195 215L202 215L195 214M95 215L96 216L95 215M97 215L98 216L97 215M129 215L130 216L129 215M192 215L192 216L195 216L192 215z"/>
<path style="fill:#b18b24; stroke:none;" d="M201 215L201 217L203 215L201 215z"/>
<path style="fill:#954f18; stroke:none;" d="M203 215L203 216L208 216L203 215z"/>
<path style="fill:#b18b24; stroke:none;" d="M208.667 215.333L209.333 215.667L208.667 215.333z"/>
<path style="fill:#954f18; stroke:none;" d="M30.3333 216.667L30.6667 217.333L30.3333 216.667M132 216L133 217L132 216M190 216L191 217L190 216z"/>
<path style="fill:#e4ded6; stroke:none;" d="M179 250C184.528 250 193.91 251.8 198.812 248.972C207.44 243.995 209.975 224.889 210 216C203.772 216.017 193.306 216.086 188.499 220.653C182.705 226.158 182.19 242.327 179 250z"/>
<path style="fill:#954f18; stroke:none;" d="M210 216L210 219L211 219L210 216M67.3333 217.667L67.6667 218.333L67.3333 217.667M98 217L99 218L98 217M130 217L131 218L130 217M188 217L189 218L188 217M195 217L196 218L195 217z"/>
<path style="fill:#b18b24; stroke:none;" d="M196 217L197 218L196 217z"/>
<path style="fill:#954f18; stroke:none;" d="M96 218L97 219L96 218M191 218L192 219L191 218M29 219L30 220L29 219M99 219L100 220L99 219z"/>
<path style="fill:#b18b24; stroke:none;" d="M189 219L190 220L189 219z"/>
<path style="fill:#954f18; stroke:none;" d="M66 220L64 225L66 220M71 220L72 221L71 220M97 220L98 221L97 220M134 220L135 221L134 220M98 222L99 223L98 222M100 222L101 223L100 222z"/>
<path style="fill:#e4ded6; stroke:none;" d="M132 222L133 223L132 222z"/>
<path style="fill:#954f18; stroke:none;" d="M133 222L134 223L133 222M175 223L175 229L176 229L175 223z"/>
<path style="fill:#b18b24; stroke:none;" d="M186 223L187 224L186 223z"/>
<path style="fill:#954f18; stroke:none;" d="M29 224L30 225L29 224M32 224L33 225L32 224M72 224L72 228L73 228L72 224M101 224L102 225L101 224z"/>
<path style="fill:#b18b24; stroke:none;" d="M209.333 224.667L209.667 225.333L209.333 224.667z"/>
<path style="fill:#954f18; stroke:none;" d="M31 225L32 226L31 225M99 225L100 226L99 225M137 225L138 226L137 225M185 225L186 226L185 225M56 226L56 227L61 227L56 226M64 226L65 227L64 226M209 226L210 227L209 226M34 227L35 228L34 227M51.6667 227.333L52.3333 227.667L51.6667 227.333M100 227L101 228L100 227M136 227L137 228L136 227z"/>
<path style="fill:#e4ded6; stroke:none;" d="M32 228C25.5261 255.192 51.5865 250 70 250C63.5568 236.459 52.5171 230.316 39 238C42.1554 232.542 49.1955 232.049 55 232L54 229C45.5184 231.09 40.0743 231.351 32 228z"/>
<path style="fill:#954f18; stroke:none;" d="M33 228L34 229L33 228M36 228L37 229L36 228M45 228L45 229L48 229L45 228M184 228L184 231L185 231L184 228z"/>
<path style="fill:#b18b24; stroke:none;" d="M31 229L32 230L31 229z"/>
<path style="fill:#954f18; stroke:none;" d="M38 229L39 230L38 229M40.6667 229.333L41.3333 229.667L40.6667 229.333M50 229L51 230L50 229z"/>
<path style="fill:#b18b24; stroke:none;" d="M51.6667 229.333L52.3333 229.667L51.6667 229.333M54 229L55 230L54 229z"/>
<path style="fill:#954f18; stroke:none;" d="M103 229L104 230L103 229M137 229L138 230L137 229z"/>
<path style="fill:#b18b24; stroke:none;" d="M208 229L209 230L208 229M45.6667 230.333L46.3333 230.667L45.6667 230.333z"/>
<path style="fill:#954f18; stroke:none;" d="M73 230L73 240L74 240L73 230M101 230L102 231L101 230M140 230L141 231L140 230M174 230L175 231L174 230z"/>
<path style="fill:#b18b24; stroke:none;" d="M39 231L40 232L39 231z"/>
<path style="fill:#954f18; stroke:none;" d="M40 231L41 232L40 231z"/>
<path style="fill:#b18b24; stroke:none;" d="M41 231L42 232L41 231z"/>
<path style="fill:#954f18; stroke:none;" d="M47.6667 232.333L48.3333 232.667L47.6667 232.333M102 232L103 233L102 232M141 232L142 233L141 232M174 232L174 238L175 238L174 232z"/>
<path style="fill:#b18b24; stroke:none;" d="M207 232L208 233L207 232z"/>
<path style="fill:#954f18; stroke:none;" d="M30 233L31 234L30 233M44 233L45 234L44 233M50 233L50 234L53 234L50 233z"/>
<path style="fill:#b18b24; stroke:none;" d="M30 234L31 235L30 234M41 234L42 235L41 234M46 234L47 235L46 234M56 234L57 235L56 234z"/>
<path style="fill:#954f18; stroke:none;" d="M103 234L104 235L103 234z"/>
<path style="fill:#e4ded6; stroke:none;" d="M139 234L140 235L139 234z"/>
<path style="fill:#954f18; stroke:none;" d="M140 234L141 235L140 234M142 234L143 235L142 234M30.3333 235.667L30.6667 236.333L30.3333 235.667z"/>
<path style="fill:#b18b24; stroke:none;" d="M39 235L40 236L39 235z"/>
<path style="fill:#954f18; stroke:none;" d="M43 235L44 236L43 235M183 235L184 236L183 235M206 235L207 236L206 235z"/>
<path style="fill:#b18b24; stroke:none;" d="M41 236L42 237L41 236z"/>
<path style="fill:#954f18; stroke:none;" d="M104 236L105 237L104 236M141 236L142 237L141 236z"/>
<path style="fill:#b18b24; stroke:none;" d="M30 237L31 238L30 237M39 237L40 238L39 237z"/>
<path style="fill:#954f18; stroke:none;" d="M144 237L145 238L144 237z"/>
<path style="fill:#b18b24; stroke:none;" d="M205 237L206 238L205 237z"/>
<path style="fill:#954f18; stroke:none;" d="M30 238L31 239L30 238M61 238L62 239L61 238M105 238L106 239L105 238z"/>
<path style="fill:#b18b24; stroke:none;" d="M183.333 238.667L183.667 239.333L183.333 238.667z"/>
<path style="fill:#954f18; stroke:none;" d="M62 239L63 240L62 239M108 239L109 240L108 239M145 239L146 240L145 239M63 240L64 241L63 240M74 240L74 244L75 244L74 240M173 240L171 246L172 246L173 240z"/>
<path style="fill:#b18b24; stroke:none;" d="M204 240L205 241L204 240z"/>
<path style="fill:#954f18; stroke:none;" d="M64 241L65 242L64 241M107 241L108 242L107 241M144 241L145 242L144 241M182 241L183 242L182 241M31 242L32 243L31 242M65 242L66 243L65 242z"/>
<path style="fill:#b18b24; stroke:none;" d="M182 242L183 243L182 242M203 242L204 243L203 242z"/>
<path style="fill:#954f18; stroke:none;" d="M108 243L109 244L108 243z"/>
<path style="fill:#b18b24; stroke:none;" d="M32 244L33 245L32 244z"/>
<path style="fill:#954f18; stroke:none;" d="M111 244L112 245L111 244z"/>
<path style="fill:#e4ded6; stroke:none;" d="M145 244L146 245L145 244z"/>
<path style="fill:#954f18; stroke:none;" d="M148 244L149 245L148 244z"/>
<path style="fill:#b18b24; stroke:none;" d="M181 244L182 245L181 244M67 245L68 246L67 245z"/>
<path style="fill:#954f18; stroke:none;" d="M75 245L75 250L76 250L75 245M68 246L69 247L68 246M110 246L111 247L110 246z"/>
<path style="fill:#e4ded6; stroke:none;" d="M146 246L147 247L146 246z"/>
<path style="fill:#954f18; stroke:none;" d="M147 246L148 247L147 246M149 246L150 247L149 246z"/>
<path style="fill:#b18b24; stroke:none;" d="M180 246L181 247L180 246M201 246L202 247L201 246z"/>
<path style="fill:#954f18; stroke:none;" d="M170.333 247.667L170.667 248.333L170.333 247.667z"/>
<path style="fill:#b18b24; stroke:none;" d="M34 248L35 249L34 248M69 248L70 249L69 248z"/>
<path style="fill:#954f18; stroke:none;" d="M111 248L112 249L111 248z"/>
<path style="fill:#e4ded6; stroke:none;" d="M147 248L148 249L147 248z"/>
<path style="fill:#954f18; stroke:none;" d="M148 248L149 249L148 248M150 248L151 249L150 248z"/>
<path style="fill:#b18b24; stroke:none;" d="M179 248L180 249L179 248M35 249L36 250L35 249z"/>
<path style="fill:#954f18; stroke:none;" d="M70 249L71 250L70 249M114 249L115 250L114 249z"/>
<path style="fill:#b18b24; stroke:none;" d="M199 249L200 250L199 249z"/>
</svg>
